<svg width="500" height="500" viewBox="0 0 500 500" fill="none" xmlns="http://www.w3.org/2000/svg">
<rect width="500" height="500" fill="white"/>
<path d="M340.671 100.327L338.214 98.878C315.003 85.3231 288.983 77.298 262.17 75.4253C235.358 73.5525 208.474 77.8823 183.605 88.079C158.736 98.2756 136.55 114.065 118.768 134.222C100.986 154.379 88.0861 178.362 81.0688 204.311C74.0516 230.259 73.1056 257.476 78.3045 283.849C83.5033 310.223 94.7071 335.044 111.047 356.387C127.386 377.73 148.423 395.022 172.524 406.921C196.625 418.82 223.143 425.006 250.021 425H405.283C406.889 424.988 408.488 424.791 410.049 424.412C414.316 423.345 418.105 420.883 420.814 417.417C423.522 413.951 424.996 409.679 425 405.28V250C425.004 219.904 417.245 190.317 402.472 164.097C387.699 137.878 366.413 115.913 340.671 100.327Z" fill="url(#paint0_linear_502_2)"/>
<path d="M340.671 100.327L338.214 98.8781C306.477 117.202 281.301 145.038 266.243 178.452C251.186 211.865 247.008 249.166 254.301 285.083C261.594 321 279.989 353.717 306.886 378.609C333.782 403.502 367.821 419.311 404.191 423.803C407.671 424.275 411.213 423.734 414.394 422.244C417.574 420.754 420.258 418.379 422.123 415.403C423.951 412.35 424.916 408.859 424.916 405.301V250C424.929 219.912 417.182 190.33 402.424 164.111C387.667 137.893 366.397 115.924 340.671 100.327Z" fill="url(#paint1_linear_502_2)"/>
<defs>
<linearGradient id="paint0_linear_502_2" x1="148.955" y1="396.481" x2="396.429" y2="149.015" gradientUnits="userSpaceOnUse">
<stop stop-color="#8F64FF"/>
<stop offset="0.57" stop-color="#617FFF"/>
<stop offset="0.94" stop-color="#488EFF"/>
</linearGradient>
<linearGradient id="paint1_linear_502_2" x1="337.857" y1="98.8781" x2="337.857" y2="423.929" gradientUnits="userSpaceOnUse">
<stop stop-color="#66E0F8"/>
<stop offset="0.17" stop-color="#5DDBF7"/>
<stop offset="0.45" stop-color="#43CCF4"/>
<stop offset="0.8" stop-color="#1AB4F0"/>
<stop offset="0.99" stop-color="#01A5ED"/>
</linearGradient>
</defs>
</svg>
